<?xml version="1.0" standalone="no"?>
<!DOCTYPE svg PUBLIC "-//W3C//DTD SVG 20010904//EN"
 "http://www.w3.org/TR/2001/REC-SVG-20010904/DTD/svg10.dtd">
<svg version="1.0" xmlns="http://www.w3.org/2000/svg"
 width="616.000000pt" height="616.000000pt" viewBox="0 0 616.000000 616.000000"
 preserveAspectRatio="xMidYMid meet">
<metadata>
Created by potrace 1.14, written by Peter Selinger 2001-2017
</metadata>
<g transform="translate(0.000000,616.000000) scale(0.100000,-0.100000)"
fill="#000000" stroke="none">
<path d="M2819 5146 c-2 -2 -44 -6 -94 -10 -49 -4 -106 -9 -125 -11 -19 -3
-55 -7 -80 -10 -39 -5 -93 -13 -182 -29 -206 -37 -567 -134 -655 -177 -28 -14
-45 -30 -55 -54 -11 -27 -13 -303 -13 -1547 0 -1489 1 -1514 20 -1546 47 -78
374 -241 675 -335 113 -36 311 -84 380 -93 19 -2 46 -7 60 -9 67 -13 167 -19
290 -18 276 1 544 56 875 178 126 46 385 173 447 220 90 66 82 -94 81 1607 0
1600 2 1550 -47 1581 -59 38 -432 138 -716 191 -133 24 -177 31 -275 42 -27 3
-63 7 -80 10 -35 6 -500 15 -506 10z m441 -91 c84 -6 320 -36 390 -50 135 -26
209 -43 355 -80 259 -66 334 -92 344 -118 5 -12 8 -245 7 -517 l-1 -495 -1325
0 -1325 0 -3 505 c-2 395 1 510 10 523 14 18 208 80 397 126 133 33 351 74
456 87 85 10 103 12 220 19 66 4 121 8 122 10 6 4 262 -3 353 -10z m-273
-1860 l0 -515 -31 0 c-42 -1 -1228 -1 -1243 0 -10 0 -13 110 -13 515 l0 515
643 0 644 0 0 -515z m1372 0 l0 -515 -52 0 c-72 -1 -1142 -1 -1194 0 l-43 0 0
515 0 515 644 0 645 0 0 -515z m-1378 -604 c3 -1 6 -271 6 -602 l0 -601 -91 7
c-243 18 -502 81 -771 187 -170 67 -392 185 -417 222 -12 17 -10 784 2 788 8
2 1254 2 1271 -1z m1366 0 c9 -1 12 -96 12 -388 l0 -387 -36 -33 c-43 -41
-320 -177 -470 -232 -141 -51 -346 -106 -466 -127 -51 -8 -103 -17 -117 -19
-14 -3 -64 -8 -112 -11 l-88 -7 0 601 c0 554 1 601 17 604 14 3 1228 2 1260
-1z"/>
<path d="M3009 4952 c-14 -3 -16 -14 -12 -75 5 -90 8 -97 33 -97 11 0 20 1 21
3 0 1 2 31 5 67 2 36 6 72 8 82 4 17 -24 27 -55 20z"/>
<path d="M2824 4933 c39 -118 63 -168 84 -171 18 -3 22 1 22 25 -1 15 -9 57
-19 93 -18 64 -18 65 -55 68 -33 3 -37 1 -32 -15z"/>
<path d="M3143 4870 c-23 -79 -22 -110 2 -110 20 0 32 20 64 108 l30 82 -37 0
-37 0 -22 -80z"/>
<path d="M2643 4933 c-18 -2 -33 -7 -33 -10 0 -3 12 -20 28 -37 15 -18 45 -54
67 -81 89 -109 89 -110 108 -90 15 15 16 20 4 39 -87 137 -121 186 -131 184
-6 0 -26 -3 -43 -5z"/>
<path d="M3313 4867 c-52 -76 -83 -129 -83 -145 0 -19 31 -21 48 -4 32 34 77
87 112 132 19 25 41 51 48 59 16 17 16 17 -34 25 l-41 6 -50 -73z"/>
<path d="M2351 4888 c-24 -5 -39 -13 -35 -18 32 -29 391 -250 404 -248 40 8
10 46 -130 159 -153 125 -155 126 -239 107z"/>
<path d="M3515 4820 c-55 -45 -117 -96 -139 -113 -21 -18 -42 -33 -47 -35 -17
-7 -10 -52 8 -52 14 0 326 192 390 241 l23 17 -23 5 c-12 3 -42 8 -67 12 -45
6 -46 5 -145 -75z"/>
<path d="M1912 4781 c-51 -16 -95 -30 -97 -33 -4 -4 264 -83 313 -93 9 -2 80
-21 157 -43 328 -94 374 -105 389 -92 26 20 6 38 -77 70 -343 132 -576 220
-583 219 -5 0 -51 -13 -102 -28z"/>
<path d="M3845 4739 c-99 -38 -227 -88 -285 -110 -163 -62 -192 -77 -188 -97
3 -13 12 -16 38 -14 31 2 752 199 811 221 12 4 18 10 13 13 -12 7 -191 58
-201 57 -4 0 -89 -32 -188 -70z"/>
<path d="M2924 4644 c-96 -46 -146 -123 -147 -227 0 -75 21 -125 79 -184 120
-120 337 -74 406 86 89 208 -134 423 -338 325z m204 -86 c82 -55 100 -168 39
-250 -32 -43 -98 -71 -152 -65 -98 12 -153 69 -160 165 -9 143 150 231 273
150z"/>
<path d="M1810 4419 l0 -71 143 6 c190 9 285 14 387 21 47 2 135 7 195 11 113
6 153 20 128 45 -14 14 -31 16 -203 24 -74 3 -162 8 -195 10 -33 3 -105 7
-160 10 -55 3 -144 7 -197 10 l-98 6 0 -72z"/>
<path d="M4107 4483 c-1 0 -63 -4 -137 -8 -74 -4 -160 -8 -190 -10 -30 -2
-120 -7 -200 -11 -178 -8 -172 -7 -184 -27 -18 -28 4 -35 134 -42 69 -3 150
-8 180 -10 30 -2 114 -7 187 -10 73 -4 152 -8 175 -10 44 -4 145 -7 163 -6 7
1 11 29 11 71 l-1 70 -68 -2 c-38 -2 -69 -4 -70 -5z"/>
<path d="M2485 4279 c-77 -21 -259 -72 -405 -112 l-265 -74 -3 -71 c-3 -79 -2
-80 58 -58 177 65 780 301 797 312 29 18 19 44 -16 43 -14 -1 -89 -19 -166
-40z"/>
<path d="M3376 4311 c-13 -21 9 -38 82 -65 42 -16 91 -35 107 -42 82 -34 661
-254 671 -254 6 0 10 27 10 70 l0 70 -66 20 c-36 10 -182 51 -325 90 -483 134
-468 130 -479 111z"/>
<path d="M2661 4187 c-28 -18 -100 -63 -159 -101 -59 -38 -145 -93 -191 -123
-52 -33 -77 -53 -65 -54 10 -1 52 -1 91 -1 l72 -1 143 116 c171 138 188 154
188 171 0 27 -28 24 -79 -7z"/>
<path d="M3333 4213 c-27 -10 -11 -43 40 -83 28 -23 68 -54 87 -70 141 -116
186 -150 200 -151 28 -2 170 -4 170 -2 0 1 -459 296 -475 305 -5 3 -16 3 -22
1z"/>
<path d="M2735 4067 c-27 -34 -52 -64 -55 -67 -10 -9 -70 -88 -70 -91 0 -8 91
-2 100 7 27 28 118 188 113 200 -11 28 -39 13 -88 -49z"/>
<path d="M3234 4115 c-3 -8 21 -57 56 -112 l62 -98 44 0 c24 1 45 3 48 5 8 9
-174 220 -189 220 -9 0 -18 -7 -21 -15z"/>
<path d="M2891 4067 c-10 -13 -61 -141 -61 -155 0 -9 56 -10 64 -1 4 4 15 36
26 73 16 59 17 68 4 81 -19 18 -19 18 -33 2z"/>
<path d="M3136 4067 c-16 -12 -17 -19 -8 -48 6 -19 16 -53 21 -75 10 -38 14
-41 42 -39 16 1 32 5 35 7 5 6 -51 147 -64 160 -4 4 -16 2 -26 -5z"/>
<path d="M3018 4048 c-25 -18 -32 -138 -9 -139 9 0 24 -2 34 -4 15 -3 17 5 17
59 0 73 -16 104 -42 84z"/>
<path d="M2289 3590 c-1 -3 -2 -73 -3 -157 -1 -108 -5 -156 -14 -165 -9 -9
-69 -12 -235 -13 l-222 0 0 -55 0 -55 225 -3 c137 -1 228 -6 235 -13 6 -6 11
-74 11 -167 1 -86 2 -160 3 -164 0 -5 26 -8 56 -8 l55 0 0 169 c0 145 2 170
16 175 9 3 114 6 235 6 202 0 219 1 220 18 0 9 1 34 2 55 1 20 0 38 -3 38 -3
1 -104 2 -225 3 -121 1 -226 5 -233 9 -9 6 -12 52 -12 170 l0 162 -55 0 c-30
0 -56 -2 -56 -5z"/>
<path d="M3236 3590 c-2 -5 1 -777 3 -792 1 -5 26 -8 56 -8 l55 0 0 403 0 402
-56 0 c-31 0 -57 -2 -58 -5z"/>
<path d="M3516 3590 c-2 -5 1 -761 3 -787 1 -9 19 -13 56 -13 l55 0 0 403 0
402 -56 0 c-31 0 -57 -2 -58 -5z"/>
<path d="M3799 3590 c-3 -17 -4 -777 -1 -787 3 -8 24 -13 58 -13 l54 0 0 403
0 402 -55 0 c-30 0 -55 -2 -56 -5z"/>
<path d="M4078 3586 c-3 -9 -2 -729 1 -778 1 -15 11 -18 56 -18 l55 0 1 270
c0 149 0 326 0 395 0 69 0 129 0 133 -1 12 -110 10 -113 -2z"/>
<path d="M1869 2478 c-1 -2 -2 -148 -3 -325 l-1 -323 57 -30 58 -31 0 355 0
356 -55 0 c-30 0 -56 -1 -56 -2z"/>
<path d="M2145 2088 l0 -392 58 -22 57 -22 0 414 0 414 -58 0 -57 0 0 -392z"/>
<path d="M2427 2473 c-3 -7 -1 -838 2 -869 1 -10 28 -20 89 -31 l22 -4 0 456
0 455 -54 0 c-30 0 -56 -3 -59 -7z"/>
<path d="M2705 2011 c0 -258 3 -473 7 -476 3 -4 26 -9 49 -11 24 -3 47 -8 51
-10 4 -3 8 213 8 480 l0 486 -57 0 -58 0 0 -469z"/>
<path d="M3659 2478 c-1 -2 -2 -79 -3 -173 -1 -93 -5 -175 -9 -181 -5 -8 -70
-12 -209 -12 -112 -1 -214 -1 -228 -1 -24 -1 -26 -4 -26 -56 0 -55 0 -55 30
-56 17 0 120 -1 229 -1 172 0 199 -3 206 -17 4 -9 7 -92 7 -184 -1 -93 1 -172
4 -177 3 -5 29 -2 58 6 l52 16 0 168 c0 122 3 170 13 178 7 6 98 10 227 10
118 0 220 1 225 1 11 1 13 96 2 107 -3 4 -104 6 -224 6 -133 0 -223 4 -230 10
-10 8 -13 57 -13 184 l0 174 -55 0 c-30 0 -55 -1 -56 -2z"/>
</g>
</svg>
