<?xml version="1.0" standalone="no"?>
<!DOCTYPE svg PUBLIC "-//W3C//DTD SVG 20010904//EN"
 "http://www.w3.org/TR/2001/REC-SVG-20010904/DTD/svg10.dtd">
<svg version="1.0" xmlns="http://www.w3.org/2000/svg"
 width="2750.000000pt" height="2750.000000pt" viewBox="0 0 2750.000000 2750.000000"
 preserveAspectRatio="xMidYMid meet">
<metadata>
Created by potrace 1.14, written by Peter Selinger 2001-2017
</metadata>
<g transform="translate(0.000000,2750.000000) scale(0.100000,-0.100000)"
fill="#000000" stroke="none">
<path d="M7939 17466 c-2 -2 -44 -7 -94 -10 -49 -4 -97 -9 -105 -11 -8 -2 -42
-7 -75 -11 -71 -8 -88 -10 -135 -19 -19 -3 -48 -8 -65 -11 -61 -10 -182 -36
-240 -51 -33 -8 -67 -16 -75 -18 -95 -19 -404 -116 -432 -137 -15 -10 -32 -36
-38 -56 -8 -26 -10 -534 -8 -1679 l3 -1642 21 -28 c75 -102 492 -295 860 -397
85 -23 161 -40 275 -61 158 -29 472 -40 594 -22 22 4 58 9 80 12 366 50 851
222 1125 399 117 76 105 -130 105 1761 0 1571 -1 1651 -18 1677 -24 35 -56 49
-237 102 -243 71 -519 133 -719 162 -25 4 -54 8 -64 10 -10 2 -48 6 -85 9 -37
4 -80 9 -97 12 -36 6 -570 14 -576 9z m561 -100 c25 -3 71 -8 102 -11 31 -3
65 -7 75 -9 10 -2 54 -9 98 -16 198 -29 529 -106 738 -172 95 -29 126 -47 128
-71 1 -7 2 -254 3 -549 l1 -537 -1441 0 -1440 0 0 555 c1 644 -17 566 140 615
97 30 409 112 471 122 17 3 71 13 120 22 50 9 101 18 115 20 14 3 49 8 79 11
30 3 63 7 73 9 10 2 57 7 106 10 48 4 88 8 90 10 5 5 495 -3 542 -9z m-343
-2015 l0 -560 -696 1 -697 0 0 559 0 559 697 0 697 0 -1 -559z m1488 -1 l0
-555 -697 -2 -698 -2 0 560 0 559 697 -2 698 -3 0 -555z m-1488 -1303 l0 -653
-31 2 c-80 4 -211 16 -216 19 -3 1 -27 6 -55 9 -27 4 -66 11 -85 16 -19 5 -46
11 -60 14 -265 47 -768 250 -915 370 l-30 24 -1 424 -1 423 416 5 c229 3 542
4 697 2 l281 -3 0 -652z m1489 243 c0 -223 -4 -417 -9 -432 -19 -59 -312 -209
-607 -310 -117 -40 -342 -101 -415 -112 -22 -4 -47 -8 -55 -11 -18 -5 -82 -13
-175 -21 -38 -3 -85 -7 -102 -9 l-33 -3 0 654 0 654 698 -2 697 -3 1 -405z"/>
<path d="M8003 17252 c-29 -4 -29 -6 8 -99 34 -87 50 -109 73 -100 21 8 19 36
-7 126 -22 75 -28 81 -74 73z"/>
<path d="M8169 17237 c-1 -31 2 -110 5 -132 4 -25 32 -43 46 -29 6 6 13 49 16
96 l6 85 -36 1 c-31 1 -36 -2 -37 -21z"/>
<path d="M8329 17172 c-14 -48 -23 -95 -21 -104 4 -21 37 -24 49 -5 10 15 73
180 70 183 -1 1 -18 5 -38 8 l-36 5 -24 -87z"/>
<path d="M7760 17230 c-5 -3 19 -42 54 -86 112 -139 131 -158 149 -151 28 11
20 35 -50 144 l-66 104 -39 -3 c-21 -1 -43 -5 -48 -8z"/>
<path d="M8497 17143 c-35 -54 -66 -103 -70 -110 -11 -17 3 -43 23 -43 16 0
213 230 205 238 -2 2 -24 6 -49 9 l-45 4 -64 -98z"/>
<path d="M7527 17199 c-15 -4 -44 -10 -63 -12 -47 -7 -48 -9 -11 -34 121 -80
280 -183 283 -183 2 0 31 -18 66 -40 54 -35 64 -39 76 -26 8 8 12 21 9 29 -4
11 -266 228 -322 267 -5 4 -23 4 -38 -1z"/>
<path d="M8705 17095 c-186 -152 -197 -163 -185 -185 7 -14 16 -17 29 -12 25
9 441 276 437 280 -5 4 -47 12 -101 17 l-50 5 -130 -105z"/>
<path d="M7074 17094 c-193 -57 -196 -58 -172 -67 13 -5 52 -17 88 -26 36 -10
157 -44 270 -75 585 -163 557 -156 566 -131 9 22 -10 40 -64 60 -26 10 -96 37
-157 60 -60 24 -189 73 -285 109 -96 36 -182 70 -190 74 -8 5 -33 3 -56 -4z"/>
<path d="M9255 17093 c-5 -5 -62 -29 -125 -52 -63 -24 -128 -48 -145 -55 -16
-7 -110 -44 -208 -81 -210 -81 -213 -83 -193 -110 13 -18 18 -19 63 -6 26 7
55 14 63 16 8 2 89 24 180 49 91 26 224 62 295 82 72 20 167 47 213 61 45 13
91 25 102 26 39 3 19 15 -67 42 -99 31 -163 41 -178 28z"/>
<path d="M8124 16939 c-60 -17 -126 -72 -159 -132 -77 -139 -19 -315 125 -380
69 -31 170 -29 236 6 100 51 155 148 148 259 -11 175 -182 296 -350 247z m163
-93 c120 -62 141 -227 40 -312 -41 -34 -72 -46 -127 -46 -98 -2 -180 77 -186
178 -3 60 24 124 67 156 60 45 147 55 206 24z"/>
<path d="M6889 16752 c-1 -4 -2 -40 -3 -80 l-2 -73 85 6 c47 3 133 8 191 10
58 3 139 7 180 10 41 2 129 7 195 10 155 7 257 15 267 21 15 9 8 43 -9 48 -10
2 -70 7 -133 11 -129 6 -246 13 -365 20 -44 2 -138 7 -210 10 -71 3 -145 8
-162 10 -18 3 -33 2 -34 -3z"/>
<path d="M9469 16756 c-2 -2 -69 -7 -149 -11 -80 -4 -165 -8 -190 -10 -25 -1
-110 -6 -190 -10 -80 -4 -158 -9 -175 -10 -16 -2 -56 -3 -87 -4 -38 -1 -62 -6
-73 -17 -28 -28 1 -43 90 -49 92 -5 243 -13 365 -20 208 -11 281 -15 368 -20
l92 -6 1 38 c1 21 2 45 3 53 3 33 -11 63 -31 66 -11 2 -22 2 -24 0z"/>
<path d="M7765 16569 c-16 -5 -70 -20 -120 -34 -49 -13 -180 -49 -290 -80
-110 -31 -207 -58 -215 -60 -95 -25 -173 -47 -210 -58 l-45 -13 -1 -77 c0 -54
3 -77 12 -77 7 0 86 29 176 64 324 126 585 226 591 226 4 0 26 9 50 19 23 11
59 27 80 35 39 16 51 48 21 60 -9 3 -16 6 -17 5 -1 0 -15 -5 -32 -10z"/>
<path d="M8581 16561 c-8 -14 -6 -22 7 -33 9 -8 145 -63 302 -122 157 -60 299
-114 315 -121 17 -7 80 -32 140 -54 61 -23 125 -48 143 -56 18 -8 34 -15 35
-15 1 0 1 26 0 57 -1 32 -2 70 -2 84 -1 24 -8 27 -158 68 -87 24 -284 78 -438
121 -363 100 -332 94 -344 71z"/>
<path d="M7710 16367 c-80 -51 -187 -119 -239 -152 -153 -98 -151 -92 -35 -93
54 0 101 3 104 7 3 4 41 36 85 71 44 35 82 67 85 70 3 3 45 37 93 75 66 52 87
74 85 89 -2 12 -10 22 -18 23 -8 2 -80 -39 -160 -90z"/>
<path d="M8523 16449 c-6 -6 -9 -18 -6 -26 3 -7 85 -78 182 -157 l177 -143 97
0 c53 0 97 2 97 3 0 5 -519 334 -527 334 -5 0 -14 -5 -20 -11z"/>
<path d="M7932 16352 c-10 -9 -58 -65 -105 -123 l-85 -105 59 0 c32 0 59 2 59
6 0 3 26 47 58 96 73 111 76 121 53 134 -14 7 -24 5 -39 -8z"/>
<path d="M8430 16356 c-13 -17 -2 -39 82 -166 42 -63 44 -64 91 -67 32 -2 47
1 47 10 -1 14 -180 229 -196 234 -6 2 -17 -3 -24 -11z"/>
<path d="M8057 16299 c-9 -5 -21 -24 -26 -42 -5 -17 -19 -56 -30 -84 l-21 -53
42 3 41 2 18 65 c10 36 18 75 19 86 0 26 -19 36 -43 23z"/>
<path d="M8317 16296 c-13 -14 -13 -24 5 -93 l19 -78 40 -1 c22 -1 39 4 39 10
-1 23 -66 170 -77 173 -6 2 -17 -3 -26 -11z"/>
<path d="M8185 16274 c-10 -10 -15 -35 -15 -75 0 -32 0 -62 0 -66 0 -5 15 -8
33 -8 l32 0 0 55 c0 74 -4 98 -21 104 -7 3 -20 -2 -29 -10z"/>
<path d="M7399 15776 c0 -6 -1 -83 -1 -171 0 -92 -5 -165 -10 -172 -8 -10 -72
-13 -257 -13 l-247 0 2 -52 c1 -29 3 -58 3 -64 1 -7 78 -11 246 -11 135 0 249
-3 253 -7 4 -4 8 -80 9 -169 1 -89 2 -171 2 -183 1 -19 7 -21 55 -20 30 1 58
5 62 9 4 4 7 83 7 175 -1 93 2 175 7 182 6 10 58 13 236 12 126 0 238 1 249 3
20 4 23 24 16 113 -1 9 -57 12 -245 12 -183 0 -246 3 -254 13 -6 7 -10 75 -10
162 0 83 -1 159 -1 171 -1 19 -7 21 -61 21 -37 0 -60 -4 -61 -11z"/>
<path d="M8430 15781 c-1 -14 -1 -666 -1 -762 l1 -106 60 0 c54 0 60 2 61 21
1 26 0 744 0 808 l-1 47 -60 -1 c-33 -1 -60 -4 -60 -7z"/>
<path d="M8730 15354 c0 -336 3 -433 13 -436 6 -3 35 -4 62 -4 l50 1 0 437 1
436 -63 -1 -63 -1 0 -432z"/>
<path d="M9036 15781 c-1 -3 -2 -199 -2 -436 l1 -430 60 0 60 0 3 436 2 436
-60 0 c-34 0 -62 -3 -64 -6z"/>
<path d="M9340 15352 l0 -437 53 1 c28 0 57 2 62 2 6 1 10 153 10 432 0 374
-2 431 -15 434 -8 2 -36 4 -62 4 l-48 1 0 -437z"/>
<path d="M6941 14228 l0 -354 59 -32 c32 -18 60 -29 63 -25 2 5 4 177 3 383
l-1 375 -62 3 -62 3 0 -353z"/>
<path d="M7248 14568 c-3 -11 -3 -782 1 -829 1 -9 24 -23 61 -37 l60 -21 0
449 0 450 -59 0 c-38 0 -60 -4 -63 -12z"/>
<path d="M7552 14097 l3 -481 35 -9 c19 -5 46 -9 60 -10 l24 -2 1 475 c0 261
-1 483 -3 492 -3 14 -15 17 -63 17 l-59 -1 2 -481z"/>
<path d="M7851 14064 c0 -283 3 -514 7 -515 4 0 15 -2 24 -4 9 -2 34 -6 56 -9
l39 -5 -1 522 -1 522 -62 2 -61 2 -1 -515z"/>
<path d="M8885 14400 c0 -100 -3 -190 -7 -201 -7 -18 -19 -19 -258 -19 l-250
0 0 -63 0 -62 241 0 c163 0 247 -3 257 -11 13 -9 15 -42 15 -205 0 -107 1
-197 3 -201 3 -4 31 2 64 13 l59 20 1 181 c0 100 4 186 9 192 6 7 85 11 243
10 128 0 239 1 246 4 8 3 12 25 12 63 l0 59 -250 0 c-201 0 -252 3 -256 13 -3
8 -6 97 -7 198 l-2 184 -60 3 -61 3 1 -181z"/>
<path d="M10590 17100 c0 -24 5 -31 28 -35 60 -13 57 5 58 -331 2 -361 5 -401
42 -473 50 -100 158 -152 322 -156 210 -5 346 74 381 220 7 32 12 165 13 376
1 360 1 359 62 359 32 0 34 2 34 35 l0 35 -148 0 -149 0 -1 -29 c-1 -28 3 -30
43 -37 82 -12 77 8 76 -337 0 -192 -5 -323 -11 -350 -34 -126 -108 -178 -253
-179 -161 0 -241 63 -263 208 -4 26 -7 180 -7 342 0 229 3 296 13 302 7 4 34
11 60 14 44 6 47 8 47 36 l0 30 -174 0 -173 0 0 -30z"/>
<path d="M16200 16960 c-121 -26 -189 -109 -177 -216 8 -75 52 -110 232 -185
94 -39 135 -74 135 -118 0 -67 -42 -107 -121 -115 -49 -6 -130 2 -149 14 -7 4
-18 38 -24 75 -10 62 -13 68 -37 71 -46 4 -52 -7 -51 -101 0 -48 4 -91 10 -97
14 -14 159 -35 217 -31 98 6 174 33 220 77 74 71 83 177 21 240 -37 36 -69 53
-185 97 -113 44 -141 68 -141 123 0 85 76 125 197 102 46 -8 49 -14 59 -84 6
-51 6 -51 77 -43 4 1 7 39 7 86 0 95 10 83 -90 105 -52 11 -149 11 -200 0z"/>
<path d="M18420 16946 c-26 -67 -105 -257 -119 -291 -10 -22 -41 -98 -70 -170
-28 -71 -55 -136 -59 -142 -7 -11 -31 -19 -64 -22 -5 -1 -8 -12 -8 -26 0 -21
5 -25 33 -26 17 0 60 -1 95 -2 74 -2 94 3 98 27 3 19 -5 23 -51 29 -36 5 -36
6 9 118 l34 84 129 2 129 1 37 -86 c52 -124 52 -118 -8 -121 -20 -1 -25 -6
-25 -26 0 -14 5 -25 10 -26 6 0 60 0 120 0 61 0 119 0 130 0 14 1 20 8 20 24
0 19 -8 25 -36 33 l-36 9 -132 315 -133 315 -48 1 c-38 0 -48 -3 -55 -20z m80
-229 c25 -61 45 -116 45 -121 0 -10 -171 -15 -186 -5 -9 5 79 239 91 239 3 0
25 -51 50 -113z"/>
<path d="M11775 16951 c-2 -4 -2 -16 1 -27 4 -13 15 -20 41 -22 19 -1 38 -4
42 -6 4 -3 7 -130 6 -283 l0 -278 -42 -9 c-36 -7 -43 -13 -43 -32 0 -27 -4
-26 110 -26 146 0 140 -1 140 27 0 18 -5 25 -20 25 -11 0 -21 -1 -22 -2 -2 -1
-13 4 -25 11 -23 12 -23 13 -22 249 0 208 2 235 14 217 27 -39 345 -470 369
-500 22 -29 28 -31 81 -28 31 1 59 4 62 6 2 3 -6 20 -19 39 -23 34 -24 38 -23
303 0 291 -3 277 58 290 20 4 27 11 27 29 l0 24 -122 -1 c-116 -2 -123 -3
-123 -22 0 -25 13 -35 47 -35 15 0 30 -5 34 -11 7 -12 9 -428 2 -435 -3 -2
-28 30 -57 71 -60 86 -231 318 -261 355 -11 14 -23 37 -26 51 l-6 26 -109 0
c-60 1 -111 -3 -114 -6z"/>
<path d="M12780 16935 c0 -23 22 -35 68 -35 l22 0 -2 -287 c-3 -248 -5 -288
-18 -289 -8 -1 -27 -2 -42 -2 -23 -2 -28 -7 -28 -27 0 -14 3 -25 8 -26 12 0
255 -1 273 0 9 1 19 12 21 26 5 22 2 25 -23 26 -16 1 -33 3 -39 4 -5 1 -14 3
-20 4 -12 1 -14 557 -2 565 5 3 25 6 45 8 28 1 36 7 40 25 2 13 2 25 -2 27 -3
2 -72 4 -153 4 -148 0 -148 0 -148 -23z"/>
<path d="M13272 16932 c2 -21 10 -28 36 -33 18 -4 34 -8 36 -10 2 -2 59 -139
126 -304 68 -165 127 -304 132 -310 13 -14 85 -16 97 -2 5 7 57 130 115 272
153 382 139 353 178 357 28 3 33 7 34 30 l1 26 -114 0 -114 0 3 -26 c2 -20 10
-26 33 -29 17 -2 33 -7 37 -11 4 -4 -38 -117 -92 -252 -87 -216 -100 -242
-108 -220 -6 14 -51 123 -101 243 -50 120 -91 222 -91 228 0 5 9 10 20 10 11
1 25 3 30 4 6 1 14 3 19 4 4 0 6 12 4 25 l-5 25 -140 -1 -139 0 3 -26z"/>
<path d="M14217 16946 c-8 -19 9 -39 35 -43 50 -7 48 4 48 -292 l0 -280 -42
-8 c-35 -7 -43 -13 -44 -31 -1 -12 4 -22 10 -23 17 -1 538 -1 564 0 21 1 22 5
22 91 l0 90 -35 0 c-38 0 -41 -4 -50 -65 -3 -22 -10 -44 -16 -50 -6 -6 -69
-10 -149 -10 l-140 0 0 137 0 137 86 -3 c92 -2 104 -8 104 -58 0 -25 4 -28 35
-28 l35 0 0 118 c0 117 0 119 -22 116 -13 -1 -28 -3 -34 -3 -6 -1 -14 -19 -18
-40 -7 -46 -14 -49 -111 -47 l-70 1 -3 123 -3 122 125 0 125 0 10 -37 c6 -21
11 -44 11 -50 0 -8 15 -13 40 -13 l40 0 0 79 0 78 -274 1 c-212 0 -276 -3
-279 -12z"/>
<path d="M15077 16947 c-8 -20 8 -40 35 -44 50 -7 48 4 48 -293 l0 -280 -40
-6 c-30 -5 -40 -11 -40 -25 0 -11 0 -22 0 -25 0 -5 178 -8 266 -5 27 1 26 45
-2 49 -66 10 -62 1 -63 132 l-2 120 49 0 c102 0 127 -22 176 -161 42 -116 81
-149 175 -149 83 0 111 9 111 36 0 21 -5 24 -40 24 -66 0 -96 22 -119 87 -12
32 -28 77 -37 100 -16 43 -52 77 -89 84 -14 3 -4 12 40 34 81 41 100 70 100
150 0 80 -19 109 -99 149 -58 30 -60 30 -261 33 -164 3 -204 1 -208 -10z m379
-71 c13 -9 31 -27 39 -40 21 -32 21 -117 0 -149 -26 -41 -98 -62 -193 -58 -22
1 -22 2 -21 137 l1 137 74 -6 c43 -3 86 -12 100 -21z"/>
<path d="M16810 16931 c0 -24 4 -27 36 -28 20 -1 40 -6 44 -13 13 -20 9 -560
-4 -561 -6 -1 -15 -2 -21 -4 -5 -1 -20 -3 -32 -3 -18 -2 -23 -8 -23 -29 l0
-28 132 2 c73 1 141 2 151 2 11 1 17 9 17 26 0 21 -5 25 -30 26 -16 1 -36 2
-42 3 -10 1 -14 67 -16 289 l-2 287 29 0 c44 0 61 10 61 35 0 23 0 23 -150 23
l-150 0 0 -27z"/>
<path d="M17340 16870 l0 -88 37 1 c37 2 38 2 48 57 l10 55 79 3 c44 2 82 -1
85 -7 3 -5 6 -131 5 -281 0 -298 1 -290 -61 -290 -28 0 -33 -3 -33 -25 0 -28
-6 -27 140 -27 177 0 170 -1 170 27 0 22 -4 25 -37 26 -21 1 -41 1 -45 0 -11
-1 -10 -11 -12 302 l-1 277 81 0 c90 0 88 2 99 -73 7 -45 8 -46 45 -45 l38 0
-2 87 -1 86 -322 1 -323 2 0 -88z"/>
<path d="M18949 16929 c-1 -16 -1 -40 -1 -54 0 -97 -1 -94 37 -93 37 1 38 4
49 70 7 45 14 48 97 48 l79 0 0 -285 c0 -157 -3 -286 -7 -286 -5 -1 -23 -3
-42 -5 -38 -4 -54 -20 -42 -42 7 -12 39 -15 155 -16 89 -1 147 3 149 9 9 25
-7 45 -34 46 -16 1 -35 2 -41 3 -10 1 -14 67 -16 289 l-2 287 79 0 c89 0 98
-6 103 -69 3 -40 18 -53 54 -48 29 4 29 4 29 78 0 41 -1 79 -3 85 -2 8 -94 12
-323 12 l-319 0 -1 -29z"/>
<path d="M19810 16596 c0 -8 10 -16 23 -18 21 -3 22 -6 23 -136 1 -131 1 -132
-22 -138 -13 -3 -24 -12 -24 -20 0 -11 23 -14 111 -14 129 0 185 12 228 48 67
57 70 172 6 236 -43 43 -97 56 -234 56 -90 0 -111 -3 -111 -14z m228 -31 c35
-8 62 -61 62 -123 0 -88 -32 -127 -112 -136 -30 -4 -38 -1 -39 12 -6 81 -2
248 5 254 9 6 35 4 84 -7z"/>
<path d="M20350 16596 c0 -8 10 -16 23 -20 23 -5 23 -7 23 -138 -1 -130 -2
-133 -24 -136 -12 -2 -22 -10 -22 -18 0 -12 28 -14 163 -14 l162 0 -1 47 c-1
45 -2 48 -27 48 -21 1 -27 -4 -27 -20 0 -11 -4 -25 -8 -31 -9 -14 -122 -13
-123 1 -1 16 -1 78 0 98 1 12 10 17 31 17 23 0 31 -5 36 -24 4 -15 12 -23 22
-21 9 2 20 4 25 4 4 1 7 28 7 61 0 57 -1 60 -24 60 -18 0 -26 -6 -28 -22 -2
-18 -10 -23 -35 -24 -18 -1 -33 4 -34 10 -1 17 -2 80 0 91 0 6 23 11 51 11 42
0 51 -4 56 -21 8 -25 21 -34 44 -28 13 4 17 14 17 44 l-1 39 -153 0 c-124 0
-153 -3 -153 -14z"/>
<path d="M17635 15772 c-56 -6 -154 -43 -212 -81 -148 -96 -225 -268 -218
-486 8 -261 161 -458 389 -501 330 -63 598 172 598 521 0 220 -83 387 -240
482 -43 26 -107 51 -149 59 -32 6 -134 10 -168 6z m168 -98 c69 -24 131 -84
171 -167 19 -40 38 -85 41 -102 14 -65 17 -234 5 -302 -28 -170 -136 -302
-259 -319 -23 -3 -50 -7 -59 -8 -24 -4 -112 18 -148 36 -39 21 -107 95 -132
145 -35 68 -54 154 -56 263 -6 234 89 413 244 461 44 13 145 10 193 -7z"/>
<path d="M12044 15762 c-22 -3 -56 -86 -301 -749 l-78 -211 -35 -8 c-19 -4
-38 -7 -42 -6 -9 2 -9 2 -12 -40 -3 -32 -14 -29 139 -29 174 0 162 -3 163 31
0 17 -5 31 -11 31 -7 1 -16 2 -22 4 -5 1 -24 3 -41 3 -18 1 -34 8 -37 15 -4
12 92 279 106 293 4 4 84 8 178 8 161 1 173 0 185 -19 15 -25 104 -264 104
-282 0 -7 -8 -13 -17 -14 -81 -5 -86 -7 -88 -44 -1 -29 -14 -26 170 -26 197 0
185 -2 185 24 0 33 -11 43 -54 50 -21 3 -39 7 -41 9 -1 2 -45 116 -98 253
-216 565 -268 699 -271 702 -5 5 -61 9 -82 5z m90 -395 c36 -97 66 -180 66
-185 0 -4 -67 -7 -150 -7 -82 0 -150 3 -150 6 0 5 54 157 67 189 3 8 7 20 9
25 7 29 57 162 67 180 10 19 11 19 18 -5 3 -14 36 -105 73 -203z"/>
<path d="M14418 15765 c-2 -2 -19 -7 -38 -10 -57 -9 -100 -26 -160 -61 -156
-91 -243 -254 -243 -454 1 -237 128 -432 332 -508 54 -21 87 -26 181 -28 142
-3 318 29 321 59 1 7 2 62 3 123 l1 112 -42 0 -42 1 -16 -77 c-20 -94 -24
-103 -61 -121 -42 -21 -195 -20 -259 2 -103 36 -183 117 -224 228 -27 72 -34
118 -33 221 1 228 103 381 280 422 121 28 283 -8 286 -64 0 -3 5 -32 11 -65
l11 -60 44 0 45 0 0 117 0 118 -90 21 c-79 19 -295 36 -307 24z"/>
<path d="M20169 15749 c-4 -9 -35 -90 -69 -180 -33 -90 -65 -173 -69 -184 -5
-11 -35 -90 -67 -175 -31 -85 -68 -184 -81 -220 -14 -36 -34 -91 -45 -123 -21
-59 -31 -69 -90 -81 -22 -5 -27 -11 -26 -36 1 -25 5 -30 27 -31 14 0 82 -1
150 -1 l125 -1 1 32 c1 17 -1 32 -4 32 -3 1 -26 3 -49 4 -24 2 -48 7 -53 12
-10 10 82 278 101 297 5 5 88 10 185 10 l175 1 19 -50 c11 -27 36 -94 56 -148
22 -60 33 -103 28 -108 -5 -5 -26 -11 -46 -12 -43 -4 -46 -6 -53 -41 -5 -30
-21 -27 181 -27 192 0 176 -3 171 29 -2 15 -5 30 -5 33 -1 4 -19 9 -42 12 -22
3 -42 7 -44 9 -2 2 -72 181 -155 398 -83 217 -165 433 -183 479 l-33 84 -48 1
c-34 1 -50 -4 -57 -15z m106 -359 c37 -102 68 -192 69 -200 1 -12 -24 -14
-146 -15 -82 0 -148 2 -148 5 -1 19 145 409 150 403 4 -5 38 -91 75 -193z"/>
<path d="M10563 15723 c2 -31 17 -41 63 -42 17 -1 36 -7 42 -13 16 -21 14
-854 -3 -868 -7 -5 -30 -12 -51 -14 -22 -3 -42 -5 -45 -5 -8 -1 -5 -48 4 -57
8 -9 412 -8 491 1 117 12 231 71 271 139 26 43 42 115 38 174 -8 130 -102 216
-243 222 -35 1 -35 2 25 29 115 53 163 131 152 244 -6 67 -26 107 -73 145 -71
59 -111 66 -406 70 l-267 3 2 -28z m465 -58 c87 -26 132 -94 127 -191 -7 -122
-82 -179 -252 -191 l-83 -5 -1 86 c0 47 -1 102 -1 121 0 19 1 71 1 115 l1 80
78 0 c43 0 101 -7 130 -15z m27 -460 c100 -15 165 -91 165 -191 0 -71 -15
-116 -52 -152 -50 -48 -107 -64 -235 -68 l-113 -3 -1 67 c-1 205 2 337 8 343
15 15 145 17 228 4z"/>
<path d="M12823 15718 c2 -19 9 -34 18 -34 8 -1 25 -2 39 -3 57 -3 55 16 56
-441 0 -282 -3 -426 -10 -435 -9 -11 -55 -22 -98 -25 -5 0 -8 -13 -8 -30 0
-34 -17 -31 185 -31 203 0 185 -4 185 34 0 31 -1 32 -47 34 -26 2 -51 7 -57
13 -9 9 -17 341 -8 367 5 17 158 10 202 -9 57 -24 87 -69 120 -181 40 -131 66
-190 101 -223 46 -44 141 -59 246 -39 28 5 33 10 33 34 0 27 -2 28 -58 34
-111 10 -143 43 -177 187 -34 142 -63 186 -148 226 -42 19 -47 24 -31 29 131
44 191 97 212 190 20 90 -9 203 -66 251 -80 70 -158 84 -453 84 l-240 0 4 -32z
m477 -59 c87 -30 130 -94 130 -195 -1 -100 -49 -173 -135 -201 -37 -12 -215
-17 -216 -6 -1 4 -2 102 -3 217 l-1 208 95 -5 c52 -3 111 -11 130 -18z"/>
<path d="M15149 15748 c-1 -4 -6 -58 -5 -59 1 0 21 -3 46 -6 25 -3 51 -10 58
-15 18 -15 18 -851 -1 -866 -7 -6 -31 -13 -52 -16 -22 -2 -43 -5 -46 -5 -8 -1
-5 -48 4 -57 5 -5 547 -8 760 -4 l27 0 -1 125 0 125 -45 0 c-24 0 -43 -3 -42
-7 4 -16 -14 -127 -25 -150 l-10 -23 -209 0 -208 0 0 215 0 215 123 0 c142 0
152 -5 156 -80 2 -25 4 -47 6 -48 2 -2 19 -5 37 -5 l33 -2 0 170 0 170 -27 -1
c-16 -1 -32 -2 -36 -3 -5 0 -10 -16 -10 -33 -5 -95 -10 -98 -158 -98 l-124 0
0 195 0 195 180 0 c125 -1 182 -5 187 -13 4 -6 12 -41 18 -77 l10 -65 45 0 44
0 0 110 0 110 -367 3 c-202 1 -367 1 -368 0z"/>
<path d="M16250 15720 c0 -16 1 -30 3 -31 1 0 25 -3 52 -6 28 -3 55 -9 61 -14
16 -13 15 -855 -1 -869 -7 -5 -34 -12 -61 -14 -47 -3 -49 -5 -51 -35 -1 -28 1
-31 30 -32 37 0 626 0 675 1 l32 0 0 140 0 140 -40 0 c-22 0 -40 -3 -41 -7 0
-5 -2 -17 -4 -28 -2 -11 -7 -40 -10 -65 -10 -85 -16 -100 -38 -105 -12 -3 -94
-4 -181 -3 l-160 3 0 424 c-1 461 -1 461 54 461 46 0 60 10 60 41 l0 29 -190
0 -190 0 0 -30z"/>
<path d="M18482 15718 c3 -31 6 -33 48 -36 83 -7 76 30 76 -441 -1 -471 3
-445 -76 -455 -25 -3 -45 -5 -45 -5 -6 -10 -2 -52 6 -57 6 -3 70 -6 142 -6
197 1 179 -3 175 34 -3 30 -6 32 -43 36 -79 7 -76 -10 -73 416 l3 378 289
-431 c159 -236 296 -431 305 -433 8 -2 32 -2 52 0 l36 4 1 465 c0 382 2 467
13 474 13 9 24 12 84 24 20 4 25 11 25 35 l0 30 -163 0 -163 0 -2 -29 c-2 -32
1 -34 70 -46 21 -3 41 -13 46 -23 8 -18 9 -698 0 -707 -7 -8 -511 754 -516
781 l-4 24 -145 0 -144 0 3 -32z"/>
<path d="M10575 14173 c-43 -23 -44 -82 -3 -104 30 -16 10197 -16 10227 0 44
24 35 95 -14 107 -14 3 -2311 7 -5105 8 -4039 1 -5086 -2 -5105 -11z"/>
<path d="M10805 13499 c-22 -4 -49 -10 -61 -13 -42 -9 -115 -49 -145 -80 -65
-66 -74 -96 -74 -256 0 -164 9 -192 82 -261 44 -43 67 -54 298 -142 272 -104
308 -125 345 -196 20 -40 15 -236 -8 -280 -38 -73 -139 -114 -282 -113 -145 1
-234 31 -280 93 -21 29 -25 47 -28 129 -3 55 -9 98 -16 102 -15 11 -108 10
-125 -1 -10 -7 -12 -33 -9 -117 3 -88 9 -118 28 -158 31 -64 99 -117 191 -147
66 -21 92 -24 234 -24 138 0 170 3 232 23 113 35 189 104 213 193 6 21 11 103
11 183 1 126 -2 150 -21 193 -46 104 -89 131 -387 244 -261 99 -260 98 -289
131 -37 41 -46 69 -46 147 1 108 26 162 93 197 85 44 282 48 379 8 80 -34 110
-87 110 -197 0 -48 4 -78 13 -84 16 -11 116 -8 128 4 12 12 13 156 3 200 -11
46 -40 96 -76 130 -36 35 -122 77 -178 88 -54 11 -290 14 -335 4z"/>
<path d="M11990 13489 c-86 -22 -151 -59 -191 -109 -54 -67 -58 -110 -57 -614
1 -256 5 -479 11 -505 33 -157 187 -235 454 -230 265 4 403 84 430 249 8 51 8
204 -1 218 -10 16 -122 16 -133 0 -4 -7 -8 -51 -9 -98 -2 -100 -19 -147 -65
-182 -52 -39 -95 -50 -210 -54 -122 -5 -204 12 -257 53 -65 49 -65 50 -67 538
0 242 3 456 8 475 15 56 46 91 106 118 48 22 72 26 171 28 90 2 127 -1 169
-15 109 -38 140 -82 145 -208 2 -46 6 -87 10 -90 8 -8 124 -8 133 0 8 9 8 149
-1 200 -15 93 -64 153 -161 198 -79 36 -104 41 -270 44 -113 3 -155 -1 -215
-16z"/>
<path d="M14546 13494 c-125 -27 -209 -85 -250 -173 -21 -45 -21 -56 -21 -552
l0 -505 30 -60 c62 -122 202 -176 444 -173 187 2 302 39 375 120 70 78 70 81
70 619 0 374 -3 486 -14 525 -26 93 -131 174 -260 200 -71 15 -303 14 -374 -1z
m338 -132 c82 -24 115 -49 143 -112 13 -30 16 -96 16 -482 -1 -434 -1 -448
-22 -490 -39 -80 -131 -116 -295 -116 -153 1 -247 39 -283 115 -16 35 -18 77
-18 478 -1 242 3 456 8 475 19 73 80 120 178 139 69 13 218 9 273 -7z"/>
<path d="M15832 13494 c-132 -28 -224 -93 -259 -183 -16 -42 -18 -90 -18 -541
0 -449 2 -499 18 -540 51 -132 203 -200 444 -200 212 1 352 52 420 156 36 55
40 117 38 609 -1 460 -2 482 -21 525 -58 128 -203 189 -448 188 -61 0 -139 -6
-174 -14z m355 -138 c61 -22 98 -53 119 -98 17 -37 18 -78 18 -488 0 -414 -1
-450 -18 -488 -35 -77 -124 -116 -272 -121 -79 -3 -184 13 -224 34 -35 18 -80
65 -93 95 -12 30 -17 877 -5 933 16 75 77 125 179 147 62 13 246 4 296 -14z"/>
<path d="M18720 13503 c-149 -21 -258 -91 -297 -191 -17 -43 -18 -86 -18 -552
l0 -505 29 -53 c63 -114 193 -168 410 -171 187 -3 311 29 393 103 87 78 87 78
88 611 0 253 -4 485 -9 515 -27 167 -180 250 -456 248 -63 -1 -126 -3 -140 -5z
m301 -142 c46 -14 96 -48 123 -84 21 -28 21 -37 21 -506 l0 -477 -25 -37 c-25
-37 -87 -74 -143 -85 -18 -4 -86 -7 -152 -6 -106 0 -126 3 -175 26 -30 14 -63
34 -72 44 -44 50 -46 65 -44 544 1 429 2 458 20 485 38 59 87 90 171 106 52
10 230 3 276 -10z"/>
<path d="M12988 13492 c-10 -2 -18 -11 -18 -20 -4 -150 0 -1415 4 -1420 10 -9
113 -10 128 -1 10 7 13 82 15 341 1 183 2 339 2 346 1 9 69 12 306 12 168 0
306 -3 306 -7 1 -5 2 -160 3 -346 1 -262 4 -340 14 -346 15 -9 114 -7 130 3 8
5 11 208 11 716 0 804 9 727 -87 725 -30 -1 -57 -7 -61 -13 -4 -6 -6 -144 -6
-307 0 -162 -2 -295 -5 -296 -3 -1 -139 -2 -303 -3 -257 -1 -300 1 -306 14 -4
8 -6 145 -6 303 1 165 -2 290 -7 294 -12 6 -96 10 -120 5z"/>
<path d="M16882 13489 l-22 -8 0 -710 c0 -557 3 -712 13 -718 17 -10 728 -11
750 -1 21 10 25 102 5 115 -7 4 -148 8 -313 9 l-300 0 -2 653 c-1 360 -4 656
-7 658 -8 9 -102 10 -124 2z"/>
<path d="M19727 13492 c-15 -3 -17 -26 -17 -225 -2 -672 1 -1211 5 -1215 2 -2
32 -5 65 -6 48 -2 63 1 70 14 5 9 9 161 9 339 0 178 2 325 5 328 3 3 144 6
313 6 169 0 314 2 321 4 8 3 12 26 12 63 0 37 -4 59 -12 62 -7 3 -154 4 -326
4 l-312 -1 0 35 c-3 173 0 453 4 458 3 3 153 5 333 5 181 0 334 2 341 4 13 6
18 122 5 124 -21 3 -802 4 -816 1z"/>
<path d="M11948 11615 c-1 -1 -22 -5 -45 -8 -100 -14 -193 -61 -237 -120 -56
-77 -56 -73 -53 -619 2 -495 2 -504 24 -548 25 -52 46 -77 88 -106 145 -101
523 -103 667 -3 91 63 111 110 116 271 3 71 0 129 -4 129 -34 6 -112 4 -125
-2 -13 -7 -16 -26 -17 -98 0 -138 -40 -196 -154 -227 -74 -20 -241 -17 -308 6
-67 23 -116 71 -128 124 -5 23 -8 241 -8 486 1 430 2 446 22 480 24 42 72 76
128 92 63 17 219 18 284 1 122 -31 162 -83 164 -208 0 -40 4 -79 9 -86 10 -16
121 -20 131 -4 14 19 8 180 -8 234 -41 139 -186 208 -441 209 -55 0 -103 -1
-105 -3z"/>
<path d="M13040 11601 c-98 -22 -164 -56 -210 -108 -63 -72 -64 -82 -64 -623
-1 -442 1 -489 17 -529 47 -116 155 -180 332 -197 188 -19 349 6 445 66 53 34
71 54 102 112 23 43 23 44 25 533 3 536 1 555 -54 627 -36 47 -112 93 -188
114 -87 24 -308 26 -405 5z m337 -130 c68 -20 113 -54 136 -100 22 -46 22 -48
22 -502 l0 -456 -28 -42 c-20 -31 -45 -50 -85 -69 -53 -25 -66 -27 -198 -27
-136 0 -142 1 -200 30 -49 25 -63 38 -83 79 l-24 48 0 452 c0 389 2 455 15
481 46 88 147 126 318 120 52 -2 110 -8 127 -14z"/>
<path d="M15630 11614 c-202 -29 -310 -104 -337 -234 -5 -25 -8 -261 -8 -525
1 -463 2 -482 22 -525 60 -130 202 -193 438 -192 254 1 399 70 448 212 22 66
24 973 2 1047 -33 113 -118 175 -280 208 -35 8 -249 14 -285 9z m278 -147 c63
-22 110 -57 129 -97 15 -31 17 -82 18 -480 0 -280 -3 -458 -10 -480 -14 -50
-71 -102 -130 -120 -33 -10 -93 -15 -181 -15 -126 0 -133 1 -190 30 -45 24
-65 41 -83 74 l-24 43 0 437 c0 240 3 453 7 473 13 72 74 122 176 144 71 16
233 11 288 -9z"/>
<path d="M18909 11616 c-2 -2 -24 -6 -49 -9 -155 -20 -256 -94 -289 -213 -7
-26 -10 -204 -8 -534 2 -481 3 -496 23 -540 59 -124 179 -178 409 -182 251 -5
400 64 450 209 14 41 21 262 8 264 -4 1 -34 2 -66 4 -72 2 -77 -5 -77 -115 0
-167 -80 -229 -300 -231 -162 -1 -260 45 -288 137 -6 21 -10 199 -10 476 0
472 1 483 49 535 12 12 44 32 72 44 44 19 70 23 172 23 229 1 303 -53 306
-223 1 -64 5 -83 18 -90 19 -10 102 -8 120 3 20 13 10 208 -13 261 -33 77
-105 132 -211 160 -54 14 -305 31 -316 21z"/>
<path d="M19975 11600 c-116 -29 -156 -52 -207 -120 -37 -50 -50 -102 -52
-199 -3 -176 30 -255 134 -322 14 -9 122 -53 240 -98 249 -96 303 -123 339
-170 24 -32 26 -42 28 -151 2 -100 0 -122 -18 -158 -26 -52 -58 -75 -133 -97
-77 -22 -234 -23 -309 -1 -110 32 -148 86 -151 213 -2 99 -7 104 -86 100 -48
-2 -54 -5 -60 -27 -7 -30 -5 -125 4 -181 27 -167 185 -253 459 -251 242 2 391
77 433 217 21 71 18 311 -5 373 -19 54 -83 122 -140 151 -22 12 -134 57 -249
100 -115 43 -225 86 -246 96 -57 27 -86 79 -90 160 -4 92 9 144 46 182 51 53
105 68 243 68 226 0 295 -56 295 -237 0 -38 3 -69 8 -69 47 -7 125 -3 134 8 7
8 9 49 6 111 -4 79 -10 107 -31 148 -33 66 -89 110 -180 141 -96 34 -303 41
-412 13z"/>
<path d="M10578 11602 c-15 -2 -29 -11 -32 -20 -2 -9 -4 -331 -4 -714 1 -500
4 -700 12 -707 14 -11 776 -9 793 2 13 8 12 101 -1 114 -4 4 -152 8 -329 8
l-322 0 -1 283 -2 282 294 0 c269 0 294 1 302 18 9 19 7 91 -3 101 -4 3 -136
7 -293 8 -158 0 -290 2 -294 2 -4 1 -7 110 -6 244 l1 242 316 5 316 5 3 58 c2
45 0 59 -13 63 -16 7 -688 12 -737 6z"/>
<path d="M14075 11602 c-22 -2 -42 -7 -45 -12 -9 -14 -5 -1418 3 -1427 12 -11
110 -12 125 0 9 7 12 134 12 570 l0 561 123 -220 c68 -120 136 -242 152 -269
16 -28 35 -63 43 -80 8 -16 20 -37 27 -45 7 -8 28 -44 47 -80 19 -36 45 -83
57 -105 13 -22 57 -101 99 -175 41 -74 82 -142 89 -151 14 -17 114 -21 130 -6
9 10 12 1412 3 1428 -8 11 -118 15 -128 4 -4 -4 -7 -261 -7 -572 0 -310 -4
-559 -8 -551 -4 7 -34 60 -66 118 -73 131 -87 156 -206 365 -54 94 -107 186
-117 205 -274 485 -246 449 -333 442z"/>
<path d="M17583 11602 c-13 -2 -23 -7 -23 -12 0 -5 -10 -33 -23 -62 -13 -29
-32 -73 -42 -98 -10 -25 -28 -67 -40 -95 -12 -27 -91 -217 -176 -422 l-154
-372 -26 72 c-20 57 -216 521 -283 672 -16 36 -31 69 -89 205 l-45 105 -66 3
c-58 3 -66 1 -67 -15 -5 -74 -4 -1392 2 -1408 5 -16 16 -20 60 -21 30 -1 60 3
67 9 9 7 12 132 13 556 1 459 3 540 14 506 7 -22 49 -127 94 -232 44 -106 117
-280 162 -385 44 -106 87 -202 94 -214 11 -17 23 -20 69 -19 34 1 62 7 70 16
8 8 35 66 61 129 26 63 57 140 70 170 14 30 52 123 86 205 33 83 67 164 75
180 8 17 27 66 43 110 l30 80 -1 -548 c0 -302 3 -551 6 -555 12 -12 126 -9
136 3 7 8 9 260 8 721 l-3 709 -50 5 c-27 3 -60 4 -72 2z"/>
<path d="M18100 11600 l-25 -6 -3 -708 c-1 -498 1 -713 9 -722 9 -11 70 -13
132 -5 4 1 7 323 7 716 0 574 -3 717 -13 721 -21 8 -81 10 -107 4z"/>
</g>
</svg>
