<?xml version="1.0" standalone="no"?>
<!DOCTYPE svg PUBLIC "-//W3C//DTD SVG 20010904//EN"
 "http://www.w3.org/TR/2001/REC-SVG-20010904/DTD/svg10.dtd">
<svg version="1.0" xmlns="http://www.w3.org/2000/svg"
 width="800.000000pt" height="800.000000pt" viewBox="0 0 800.000000 800.000000"
 preserveAspectRatio="xMidYMid meet">
<metadata>
Created by potrace 1.14, written by Peter Selinger 2001-2017
</metadata>
<g transform="translate(0.000000,800.000000) scale(0.100000,-0.100000)"
fill="#000000" stroke="none">
<path d="M3650 7054 c-471 -39 -769 -86 -1176 -189 -264 -66 -616 -175 -652
-202 -15 -11 -35 -35 -45 -54 -17 -32 -17 -154 -15 -2469 2 -1339 7 -2443 12
-2452 13 -28 26 -11 15 20 -6 17 -8 942 -7 2454 l3 2427 21 28 c26 34 77 55
309 127 1063 327 2002 381 3030 175 362 -72 976 -239 1018 -277 13 -12 20 -13
29 -4 15 15 -39 39 -197 87 -515 156 -987 254 -1490 311 -131 15 -739 28 -855
18z"/>
<path d="M3600 6889 c-500 -36 -1083 -154 -1585 -321 l-100 -33 0 -767 0 -768
2062 0 2063 0 2 770 3 771 -82 24 c-46 14 -120 36 -165 49 -289 86 -760 188
-1063 230 -370 51 -803 69 -1135 45z m196 -134 c3 -14 4 -40 0 -57 -4 -18 3
-63 16 -114 17 -64 19 -87 10 -96 -20 -20 -35 5 -82 131 -30 81 -51 121 -62
124 -10 3 -18 10 -18 15 0 12 28 19 87 21 38 1 43 -2 49 -24z m264 11 c0 -8
-6 -16 -14 -19 -10 -4 -15 -33 -18 -111 -4 -118 -12 -137 -51 -112 -29 20 -37
56 -37 174 l0 82 60 0 c45 0 60 -4 60 -14z m258 8 c26 -7 29 -24 5 -31 -12 -3
-33 -43 -62 -120 -25 -63 -51 -122 -59 -130 -13 -12 -17 -12 -33 6 -24 25 -24
39 0 126 11 39 24 89 31 113 11 41 12 42 53 42 23 0 52 -3 65 -6z m-744 -165
c84 -130 96 -155 91 -181 -12 -54 -41 -32 -173 130 -79 98 -130 152 -142 152
-24 0 -34 16 -18 27 11 6 70 16 129 22 11 1 50 -50 113 -150z m1074 135 c27
-5 30 -34 3 -34 -13 0 -57 -45 -128 -132 -165 -203 -177 -214 -203 -183 -17
21 -12 30 106 214 l97 151 51 -5 c28 -4 61 -8 74 -11z m-1353 -229 c212 -171
223 -182 222 -213 0 -19 -6 -36 -13 -39 -11 -4 -288 169 -534 334 -39 25 -76
43 -93 43 -18 0 -27 4 -25 13 5 14 148 47 191 44 20 -1 93 -54 252 -182z
m1762 168 c63 -11 93 -21 93 -30 0 -7 -11 -13 -27 -13 -15 0 -64 -25 -117 -59
-50 -32 -176 -113 -280 -181 -223 -143 -251 -159 -268 -142 -8 8 -9 19 -2 36
10 28 471 406 493 406 8 0 57 -7 108 -17z m643 -153 c201 -58 240 -71 240 -86
0 -13 -8 -14 -38 -9 -30 5 -145 -24 -592 -149 -662 -185 -749 -208 -761 -200
-17 10 -9 43 14 60 26 20 1037 412 1052 408 6 -2 44 -13 85 -24z m-2848 -151
c244 -94 468 -180 498 -192 67 -25 66 -24 75 -64 6 -29 4 -33 -15 -33 -30 0
-229 54 -1102 301 -134 38 -186 48 -213 43 -28 -5 -35 -3 -35 9 0 11 25 23 83
41 45 13 111 33 147 44 36 11 77 21 92 21 15 1 227 -76 470 -170z m1320 -96
c121 -57 206 -173 229 -313 10 -63 4 -150 -11 -150 -5 0 -6 -8 -4 -18 6 -22
-49 -127 -67 -127 -8 0 -14 -7 -14 -16 0 -19 -71 -83 -84 -75 -5 4 -13 1 -17
-5 -5 -8 -2 -10 7 -5 8 4 5 0 -6 -8 -11 -9 -25 -14 -33 -11 -7 2 -11 1 -8 -4
3 -5 -20 -16 -52 -25 -192 -53 -398 44 -482 227 -30 63 -34 82 -34 157 -1 104
19 167 78 247 48 66 98 103 183 139 50 21 70 24 153 22 82 -3 104 -8 162 -35z
m-1522 -273 c767 -41 746 -39 766 -61 28 -31 11 -47 -58 -53 -79 -8 -880 -53
-1088 -62 -105 -4 -162 -11 -177 -20 -12 -8 -27 -14 -33 -14 -11 0 -15 222 -3
233 8 9 -35 11 593 -23z m3295 21 c3 -6 -4 -15 -15 -21 -18 -9 -20 -21 -20
-95 0 -49 -4 -85 -10 -85 -5 0 -175 9 -377 20 -203 10 -422 22 -488 25 -112 6
-379 23 -435 29 -51 5 -25 65 28 67 15 0 290 15 612 33 668 38 697 39 705 27z
m-2495 -276 c6 -8 9 -18 6 -23 -11 -19 -56 -36 -1071 -427 -165 -63 -286 -115
-294 -126 -7 -11 -20 -19 -28 -19 -11 0 -13 22 -11 122 l3 121 570 158 c314
87 608 170 655 183 99 28 153 32 170 11z m1789 -155 c339 -94 637 -178 664
-186 48 -16 59 -30 32 -40 -12 -5 -15 -25 -15 -96 0 -68 -3 -89 -12 -85 -83
34 -663 259 -945 367 -367 141 -423 164 -423 178 0 17 25 32 54 32 16 0 307
-77 645 -170z m-1703 -14 c8 -20 -3 -31 -140 -143 -65 -54 -180 -148 -255
-210 l-136 -112 -103 -1 c-70 0 -112 -5 -131 -15 -27 -13 -41 -11 -41 6 0 4
84 61 188 127 103 67 270 175 372 241 183 119 233 141 246 107z m1360 -227
c206 -133 374 -245 374 -248 0 -17 -14 -19 -41 -6 -19 10 -60 15 -127 15 l-98
0 -65 53 c-35 29 -147 120 -249 201 -209 168 -234 191 -226 212 14 37 64 11
432 -227z m-1237 101 c26 -13 32 -36 19 -66 -8 -17 -18 -24 -29 -21 -10 3 -20
-1 -22 -8 -3 -6 -39 -64 -81 -128 l-76 -117 -47 0 c-29 0 -53 -6 -65 -17 -13
-11 -22 -13 -29 -6 -17 17 270 364 309 372 2 1 11 -3 21 -9z m879 -175 c119
-147 149 -195 124 -195 -5 0 -16 8 -25 18 -12 14 -28 17 -59 15 l-43 -3 -84
129 c-66 100 -89 127 -103 123 -20 -5 -41 37 -31 64 8 22 44 33 68 22 11 -5
80 -83 153 -173z m-698 77 c18 -14 22 -25 16 -45 -3 -15 -13 -27 -20 -27 -15
0 -40 -64 -52 -132 -6 -35 -9 -38 -39 -38 -18 0 -38 -7 -45 -15 -8 -10 -17
-12 -22 -7 -11 11 73 235 98 263 21 24 36 24 64 1z m387 -6 c10 -13 28 -49 38
-80 16 -46 17 -59 7 -65 -11 -7 -10 -15 2 -46 21 -48 21 -47 -16 -43 -31 3
-33 6 -53 82 -17 61 -26 81 -43 87 -29 11 -29 53 0 73 31 22 43 20 65 -8z
m-199 -22 c26 -18 30 -64 6 -64 -15 0 -16 -9 -11 -75 l7 -75 -29 0 c-17 0 -31
-6 -35 -16 -3 -8 -11 -12 -17 -8 -9 5 -10 38 -6 113 6 91 10 108 28 124 26 21
29 21 57 1z"/>
<path d="M6265 6616 c13 -31 15 -337 15 -2453 0 -1330 -4 -2434 -9 -2453 -20
-87 -60 -129 -208 -218 -362 -219 -966 -441 -1448 -531 -632 -118 -1243 -57
-1954 195 -368 131 -767 329 -879 437 -17 17 -32 27 -32 21 0 -18 78 -86 140
-122 19 -11 75 -43 124 -72 160 -93 397 -197 676 -298 197 -72 468 -144 690
-186 417 -78 859 -76 1270 5 312 61 668 172 975 304 123 52 325 152 385 190
22 14 44 25 50 25 5 0 10 3 10 8 0 4 19 16 42 27 63 30 163 132 177 180 17 61
15 4911 -2 4944 -20 41 -39 38 -22 -3z"/>
<path d="M6110 6563 c0 -4 0 -369 0 -809 0 -639 -2 -804 -13 -812 -18 -15
-4195 -16 -4214 0 -20 16 -27 3 -8 -16 15 -15 195 -16 2119 -16 2025 0 2104 1
2119 18 16 17 17 89 17 825 0 526 -3 808 -10 812 -5 3 -10 3 -10 -2z"/>
<path d="M1942 4754 c-22 -15 -22 -17 -22 -295 0 -176 4 -279 10 -279 6 0 11
104 12 278 l3 277 398 0 c218 0 397 1 397 2 0 1 -7 9 -16 17 -13 14 -63 16
-387 16 -321 0 -376 -2 -395 -16z"/>
<path d="M2818 4753 c-13 -15 -17 -71 -23 -345 l-7 -327 -31 -10 c-19 -7 -173
-11 -422 -11 -302 0 -395 -3 -403 -12 -15 -19 -20 -178 -5 -178 7 0 16 -7 20
-15 7 -12 71 -15 420 -17 368 -3 414 -5 429 -20 9 -9 13 -21 10 -27 -4 -6 -7
-151 -6 -321 1 -378 -9 -352 138 -348 l97 3 5 330 c3 182 9 338 13 347 17 34
63 38 468 38 l399 0 0 80 c0 95 0 91 11 112 5 9 5 19 1 22 -5 3 -203 6 -440 7
-408 1 -433 2 -442 19 -6 11 -10 145 -10 329 0 286 1 310 17 313 16 3 15 6 -5
26 -20 20 -32 22 -120 22 -82 0 -102 -3 -114 -17z"/>
<path d="M3142 4755 c-22 -16 -22 -17 -22 -301 0 -224 3 -285 13 -282 9 4 13
72 15 286 l2 282 380 0 c235 0 389 -4 406 -10 26 -10 27 -10 12 12 l-15 23
-384 3 c-336 2 -387 0 -407 -13z"/>
<path d="M4188 4759 c-17 -9 -18 -58 -18 -799 0 -533 3 -790 10 -790 6 0 15
-11 20 -25 10 -25 11 -26 107 -23 l98 3 3 793 c2 692 4 793 17 798 19 8 19 19
-1 38 -12 13 -38 16 -117 16 -56 0 -110 -5 -119 -11z"/>
<path d="M4676 4757 c-17 -12 -18 -57 -16 -797 0 -431 4 -787 8 -790 4 -3 12
-14 18 -25 10 -17 23 -20 104 -23 68 -2 96 1 102 10 4 7 8 367 8 801 0 518 3
787 10 787 18 0 11 29 -9 40 -29 15 -203 13 -225 -3z"/>
<path d="M5170 4758 l-25 -14 -3 -787 c-1 -535 1 -787 8 -787 6 0 15 -11 20
-25 10 -25 11 -26 107 -23 l98 3 2 795 c3 696 5 796 18 806 13 10 13 13 -1 25
-24 19 -190 24 -224 7z"/>
<path d="M5652 4755 l-22 -16 0 -784 0 -784 24 -25 c22 -24 30 -26 114 -26 73
0 91 3 96 16 3 9 6 368 6 799 0 618 3 784 13 788 9 3 7 10 -6 23 -24 26 -191
32 -225 9z"/>
<path d="M6110 3448 c-1 -1755 0 -1710 -25 -1738 -29 -32 -234 -151 -377 -220
-626 -298 -1361 -461 -1903 -420 -386 28 -750 111 -1155 261 -247 91 -538 228
-669 314 -60 39 -63 41 -55 21 5 -13 116 -86 131 -86 3 0 17 -9 31 -19 15 -10
32 -20 37 -21 6 -1 37 -17 70 -35 64 -36 259 -122 390 -173 351 -137 755 -238
1102 -276 521 -58 1121 42 1753 291 285 112 636 298 675 357 16 25 16 -14 15
1834 0 808 -3 1222 -10 1222 -7 0 -10 -444 -10 -1312z"/>
<path d="M1935 3740 c-16 -18 -18 -45 -19 -300 -1 -216 2 -280 11 -280 10 0
13 67 15 283 l3 282 398 3 c359 2 431 7 381 26 -9 3 -186 6 -393 6 -365 0
-379 -1 -396 -20z"/>
<path d="M3136 3744 c-14 -13 -16 -55 -16 -301 0 -223 3 -284 13 -281 9 4 13
70 15 279 1 151 5 280 7 287 4 10 83 12 382 10 208 -2 387 -7 398 -11 17 -7
16 -5 -4 12 -23 20 -32 21 -401 21 -331 0 -381 -2 -394 -16z"/>
<path d="M2126 3034 c-14 -14 -16 -90 -16 -685 0 -413 4 -669 9 -669 6 0 16
-12 23 -27 13 -28 156 -112 191 -113 16 0 17 41 17 730 0 656 2 730 16 738 14
8 14 10 -1 25 -23 24 -216 25 -239 1z"/>
<path d="M2616 3034 c-14 -14 -16 -100 -16 -800 0 -529 3 -784 10 -784 6 0 14
-10 19 -22 7 -17 31 -31 101 -55 51 -18 96 -30 101 -27 5 3 9 354 9 834 0 654
3 829 13 833 9 3 9 7 -2 20 -19 24 -212 25 -235 1z"/>
<path d="M3096 3028 c-22 -34 -24 -1713 -2 -1721 8 -3 16 -16 18 -29 3 -20 15
-26 83 -45 44 -12 90 -22 103 -22 l22 -1 0 889 c0 777 2 891 15 905 13 13 13
16 -1 30 -12 13 -38 16 -119 16 -97 0 -106 -2 -119 -22z"/>
<path d="M3587 3032 c-16 -17 -17 -95 -17 -920 l0 -901 28 -30 c26 -29 34 -31
120 -37 l92 -7 0 930 c0 643 3 932 11 940 7 7 5 15 -6 27 -25 25 -205 23 -228
-2z"/>
<path d="M4056 3028 c-14 -19 -16 -65 -16 -305 0 -182 4 -283 10 -283 6 0 10
101 10 283 0 155 4 288 9 295 6 10 85 12 389 10 303 -2 378 0 370 10 -8 9 -97
12 -384 12 l-373 0 -15 -22z"/>
<path d="M4916 3034 c-14 -13 -16 -59 -16 -343 0 -267 -3 -331 -14 -347 -14
-18 -32 -19 -418 -22 -363 -2 -404 -4 -415 -19 -8 -10 -13 -48 -13 -94 0 -116
-28 -109 437 -109 213 0 393 -4 399 -8 16 -11 17 -36 15 -426 l-2 -369 26 -13
c26 -13 35 -12 192 37 l32 10 3 364 c3 334 4 366 21 382 16 17 52 18 445 23
l427 5 3 85 c2 61 7 88 17 96 13 10 13 13 -1 25 -14 11 -97 14 -456 14 -379 0
-440 2 -448 15 -15 23 -13 653 2 668 8 8 8 15 -2 27 -18 22 -212 22 -234 -1z"/>
<path d="M5236 3028 c-23 -33 -24 -600 -1 -592 12 5 15 51 17 298 l3 291 403
0 c263 0 401 3 399 10 -2 6 -149 11 -405 13 l-401 2 -15 -22z"/>
<path d="M4057 2002 c-15 -17 -17 -61 -17 -425 0 -265 3 -407 10 -407 7 0 10
141 10 404 0 335 2 406 14 415 10 9 114 11 390 9 207 -2 376 0 376 3 0 16 -54
19 -399 19 -344 0 -369 -1 -384 -18z"/>
<path d="M5232 2008 c-9 -9 -12 -93 -12 -315 0 -263 2 -302 15 -297 12 5 15
51 17 303 l3 296 375 3 c265 2 383 -1 403 -9 32 -14 45 -6 27 16 -11 13 -66
15 -414 15 -299 0 -405 -3 -414 -12z"/>
</g>
</svg>
